<svg width="32" height="32" viewBox="0 0 32 32" xmlns="http://www.w3.org/2000/svg">
<path d="M11.219 23.6C10.9524 23.8667 10.6857 24 10.2857 24C9.88571 24 9.61904 23.8667 9.35237 23.6L2.68571 16.9333C2.15237 16.4 2.15237 15.6 2.68571 15.0667L9.35237 8.4C9.88571 7.86667 10.6857 7.86667 11.219 8.4C11.7524 8.93333 11.7524 9.73333 11.219 10.2667L6.62856 14.8571H28.019C28.8076 14.8571 29.3333 15.3143 29.3333 16C29.3333 16.6857 28.8076 17.1429 28.019 17.1429H6.62856L11.219 21.7333C11.7524 22.2667 11.7524 23.0667 11.219 23.6Z" fill="currentColor"/>
</svg>
