<svg width="14" height="14" viewBox="0 0 14 14" xmlns="http://www.w3.org/2000/svg">
<path d="M11.297 1.07815H10.7748V0.549744C10.7748 0.24784 10.5301 0.00311279 10.2282 0.00311279C9.92631 0.00311279 9.68158 0.24784 9.68158 0.549744V1.07815H4.31839V0.549744C4.31839 0.24784 4.07366 0.00311279 3.77176 0.00311279C3.46985 0.00311279 3.22513 0.24784 3.22513 0.549744V1.07815H2.70296C1.21254 1.07815 0 2.29068 0 3.78108V10.2939C0 11.7843 1.21254 12.9969 2.70296 12.9969H11.2971C12.7875 12.9969 14 11.7843 14 10.2939V3.78108C14 2.29068 12.7875 1.07815 11.297 1.07815ZM2.70296 2.17141H3.22513V3.23734C3.22513 3.53925 3.46985 3.78397 3.77176 3.78397C4.07366 3.78397 4.31839 3.53925 4.31839 3.23734V2.17141H9.68161V3.23734C9.68161 3.53925 9.92634 3.78397 10.2282 3.78397C10.5301 3.78397 10.7749 3.53925 10.7749 3.23734V2.17141H11.2971C12.1846 2.17141 12.9067 2.89351 12.9067 3.78108V5.30327H1.09326V3.78108C1.09326 2.89351 1.81536 2.17141 2.70296 2.17141ZM11.297 11.9036H2.70296C1.81536 11.9036 1.09326 11.1815 1.09326 10.2939V6.39654H12.9067V10.2939C12.9067 11.1815 12.1846 11.9036 11.297 11.9036Z" fill="currentColor"/>
</svg>
