<svg width="14" height="14" viewBox="0 0 14 14" xmlns="http://www.w3.org/2000/svg">
<path d="M10.4908 7.54683C10.4908 7.84887 10.246 8.0937 9.94396 8.0937H9.4153C9.11326 8.0937 8.86843 7.84887 8.86843 7.54683C8.86843 7.24479 9.11326 6.99996 9.4153 6.99996H9.94396C10.246 6.99996 10.4908 7.24479 10.4908 7.54683ZM7.51038 6.99996H3.77342C3.47138 6.99996 3.22654 7.24479 3.22654 7.54683C3.22654 7.84887 3.47138 8.0937 3.77342 8.0937H7.51038C7.81242 8.0937 8.05725 7.84887 8.05725 7.54683C8.05725 7.24479 7.81242 6.99996 7.51038 6.99996ZM10.2265 3.77342H3.77342C3.47138 3.77342 3.22654 4.01825 3.22654 4.32029C3.22654 4.62232 3.47138 4.86716 3.77342 4.86716H10.2265C10.5285 4.86716 10.7734 4.62232 10.7734 4.32029C10.7734 4.01825 10.5285 3.77342 10.2265 3.77342ZM13.9999 2.18749V9.67507C13.9999 10.8812 13.0186 11.8626 11.8124 11.8626H6.1373L4.38288 13.617C3.56153 14.4383 2.15104 13.85 2.15104 12.6925V11.8623C0.961565 11.8428 0 10.8691 0 9.67507V2.18749C0 0.981307 0.981307 0 2.18749 0H11.8124C13.0186 0 13.9999 0.981307 13.9999 2.18749ZM12.9062 2.18749C12.9062 1.5844 12.4155 1.09374 11.8124 1.09374H2.18749C1.5844 1.09374 1.09374 1.5844 1.09374 2.18749V9.67507C1.09374 10.2782 1.5844 10.7688 2.18749 10.7688C2.77048 10.7688 3.24478 11.2431 3.24478 11.8261V12.6925C3.24478 12.8817 3.47529 12.9778 3.60946 12.8436L5.37457 11.0785C5.57429 10.8788 5.8398 10.7688 6.1222 10.7688H11.8125C12.4155 10.7688 12.9062 10.2782 12.9062 9.67509V2.18749H12.9062Z" fill="currentColor"/>
</svg>
