<svg width="16" height="14" viewBox="0 0 16 14" xmlns="http://www.w3.org/2000/svg">
<path d="M7.99992 2.54997C9.97009 2.54997 11.78 3.68799 13.1586 4.92972C14.4391 6.08313 15.2723 7.25705 15.4316 7.48157C15.4367 7.48871 15.441 7.49488 15.4447 7.50007C15.441 7.50533 15.4365 7.5116 15.4314 7.51885C15.2711 7.74461 14.4382 8.91763 13.1586 10.0703C11.78 11.312 9.97009 12.45 7.99992 12.45C6.02975 12.45 4.21979 11.312 2.84122 10.0702C1.55963 8.91589 0.726072 7.7409 0.567963 7.51803C0.563005 7.51104 0.558711 7.50499 0.555088 7.4999C0.558768 7.49474 0.563132 7.48859 0.568173 7.48148C0.72725 7.25734 1.56049 6.08326 2.84121 4.9297C4.2198 3.68799 6.02976 2.54997 7.99992 2.54997Z" stroke="currentColor" stroke-width="1.1" stroke-linejoin="round" fill="none"/>
<path d="M5.5 7.49997C5.5 6.12194 6.62197 4.99997 8 4.99997C9.37803 4.99997 10.5 6.12194 10.5 7.49997C10.5 8.878 9.37803 9.99997 8 9.99997C6.62197 9.99997 5.5 8.878 5.5 7.49997Z" stroke="currentColor" fill="none"/>
</svg>
