<svg width="16" height="16" viewBox="0 0 16 16" xmlns="http://www.w3.org/2000/svg">
<path fill-rule="evenodd" clip-rule="evenodd" d="M8.19901 0C10.0687 0 11.8266 0.697754 13.1487 1.96472C14.4707 3.23169 15.1989 4.91614 15.199 6.70789C15.199 8.49951 14.4709 10.1841 13.1487 11.451L8.54499 15.8627C8.44945 15.9542 8.32423 16 8.19901 16C8.07391 16 7.94869 15.9542 7.85315 15.8627L3.24916 11.4509C1.92714 10.1841 1.19901 8.49951 1.19901 6.70789C1.19901 4.91614 1.92714 3.23157 3.24916 1.96472C4.5713 0.697754 6.32923 0 8.19901 0ZM8.19901 9.05C9.57972 9.05 10.699 7.93072 10.699 6.55001C10.699 5.16929 9.57972 4.05001 8.19901 4.05001C6.81829 4.05001 5.69901 5.16929 5.69901 6.55001C5.69901 7.93072 6.81829 9.05 8.19901 9.05Z" fill="currentColor"/>
</svg>
