<svg width="16" height="16" viewBox="0 0 16 16" xmlns="http://www.w3.org/2000/svg">
<path d="M12.1643 10.5843C11.6415 10.0683 10.989 10.0683 10.4696 10.5843C10.0734 10.9772 9.67717 11.3701 9.28762 11.7696C9.18108 11.8795 9.09119 11.9028 8.96134 11.8295C8.70497 11.6897 8.43196 11.5765 8.18558 11.4233C7.03692 10.7009 6.07471 9.77194 5.22237 8.7265C4.79953 8.2071 4.4233 7.65108 4.16027 7.02515C4.107 6.89863 4.11699 6.81539 4.2202 6.71218C4.61641 6.32929 5.00262 5.93642 5.39217 5.54354C5.93487 4.99751 5.93487 4.35826 5.38884 3.8089C5.0792 3.49593 4.76956 3.18962 4.45992 2.87665C4.1403 2.55703 3.824 2.23407 3.50104 1.91777C2.97832 1.40837 2.32575 1.40837 1.80635 1.9211C1.40682 2.31398 1.02393 2.71684 0.617738 3.10306C0.24151 3.45931 0.0517317 3.89546 0.0117783 4.40487C-0.0514812 5.2339 0.151615 6.01632 0.437948 6.77877C1.02393 8.35693 1.91622 9.75863 2.99829 11.0438C4.45992 12.7818 6.20455 14.1568 8.24551 15.149C9.16443 15.5951 10.1167 15.9381 11.1521 15.9947C11.8646 16.0346 12.4839 15.8548 12.98 15.2988C13.3196 14.9193 13.7025 14.573 14.0621 14.2101C14.5948 13.6707 14.5981 13.0182 14.0687 12.4854C13.4361 11.8495 12.8002 11.2169 12.1643 10.5843Z" fill="currentColor"/>
<path d="M11.5284 7.93074L12.7569 7.72098C12.5638 6.5923 12.0311 5.57016 11.2221 4.75777C10.3664 3.9021 9.28432 3.36273 8.09238 3.19626L7.91925 4.43148C8.84151 4.56133 9.68053 4.97751 10.3431 5.64007C10.969 6.26601 11.3785 7.05842 11.5284 7.93074Z" fill="currentColor"/>
<path d="M13.4495 2.59031C12.0311 1.17197 10.2366 0.276344 8.25553 0L8.0824 1.23523C9.79373 1.47495 11.3453 2.25071 12.5705 3.47262C13.7325 4.63459 14.4949 6.10288 14.7713 7.71766L15.9998 7.50791C15.6769 5.63676 14.7946 3.93874 13.4495 2.59031Z" fill="currentColor"/>
</svg>
