<svg width="16" height="16" viewBox="0 0 16 16" xmlns="http://www.w3.org/2000/svg">
<path d="M14.808 7.00801L11.128 9.66401L12.536 13.96C12.608 14.192 12.528 14.44 12.336 14.584C12.24 14.656 12.12 14.688 12.008 14.688C11.896 14.688 11.784 14.656 11.68 14.584L7.99999 11.92L4.31999 14.576C4.12799 14.72 3.86399 14.712 3.66399 14.576C3.47199 14.432 3.39199 14.184 3.46399 13.952L4.87199 9.65601L1.19199 7.00001C0.999994 6.85601 0.911994 6.60801 0.991994 6.37601C1.06399 6.14401 1.27999 5.99201 1.51999 5.99201H6.07199L7.47999 1.69601C7.55199 1.47201 7.76799 1.31201 8.00799 1.31201C8.24799 1.31201 8.46399 1.46401 8.53599 1.69601L9.93599 6.00001H14.488C14.728 6.00001 14.944 6.15201 15.016 6.38401C15.088 6.61601 15.008 6.86401 14.808 7.00801Z" fill="currentColor"/>
</svg>
