<svg width="20" height="20" viewBox="0 0 20 20" xmlns="http://www.w3.org/2000/svg">
<path fill-rule="evenodd" clip-rule="evenodd" d="M2.8181 9.11536C6.72261 7.31925 9.32623 6.13514 10.629 5.56304C14.3485 3.92957 15.1214 3.64582 15.6251 3.63645C15.7359 3.63439 15.9837 3.66338 16.1441 3.80087C16.2796 3.91695 16.3169 4.07377 16.3348 4.18383C16.3526 4.2939 16.3748 4.54462 16.3572 4.74053C16.1556 6.97663 15.2834 12.403 14.8397 14.9075C14.652 15.9672 14.2823 16.3225 13.9244 16.3573C13.1466 16.4329 12.556 15.8146 11.8027 15.2932C10.6239 14.4773 9.9579 13.9695 8.81366 13.1733C7.49129 12.2532 8.34853 11.7476 9.10214 10.9211C9.29936 10.7048 12.7263 7.41371 12.7927 7.11515C12.801 7.07781 12.8087 6.93863 12.7303 6.86513C12.652 6.79164 12.5364 6.81677 12.453 6.83676C12.3348 6.86509 10.4516 8.17929 6.80353 10.7794C6.269 11.1669 5.78484 11.3557 5.35105 11.3458C4.87283 11.3349 3.95292 11.0603 3.26907 10.8256C2.43029 10.5378 1.76365 10.3856 1.8217 9.89665C1.85194 9.642 2.18407 9.38157 2.8181 9.11536Z" fill="currentColor"/>
</svg>
