<svg width="32" height="32" viewBox="0 0 32 32" fill="none" xmlns="http://www.w3.org/2000/svg">
<path d="M8.35498 28.5C9.37998 28.5 9.68499 27.07 10.145 24.9C10.645 22.58 11.315 19.4 13 19.4C14.685 19.4 15.36 22.58 15.855 24.9C16.315 27.07 16.62 28.5 17.645 28.5C20.225 28.5 22.035 23.395 22.715 20.91C23.6597 21.0576 24.625 21.0027 25.5469 20.7488C26.4688 20.495 27.3262 20.048 28.0622 19.4376C28.7982 18.8272 29.396 18.0673 29.8159 17.2083C30.2359 16.3492 30.4684 15.4107 30.498 14.455C30.5277 13.4992 30.3538 12.5481 29.9879 11.6647C29.6219 10.7813 29.0724 9.9858 28.3756 9.33095C27.6789 8.6761 26.8509 8.17687 25.9465 7.86637C25.0421 7.55588 24.082 7.44123 23.13 7.53001C22.7358 6.73941 22.1817 6.03935 21.5026 5.47426C20.8236 4.90916 20.0345 4.49137 19.1855 4.24737C18.3364 4.00337 17.4459 3.93851 16.5705 4.05688C15.695 4.17526 14.8537 4.47429 14.1 4.93501C13.7684 5.13629 13.3879 5.24272 13 5.24272C12.6121 5.24272 12.2316 5.13629 11.9 4.93501C10.889 4.32483 9.73085 4.00159 8.54999 4.00001C5.17999 4.00001 2.32999 6.75501 2.04999 10.27C1.72499 14.64 2.49999 18.205 3.41999 21.41C4.33999 24.615 6.18498 28.5 8.35498 28.5ZM29.5 14.25C29.5 15.3873 29.1628 16.499 28.5309 17.4445C27.8991 18.3901 27.0011 19.1271 25.9504 19.5623C24.8997 19.9975 23.7436 20.1114 22.6282 19.8895C21.5128 19.6677 20.4883 19.12 19.6841 18.3159C18.88 17.5117 18.3323 16.4872 18.1105 15.3718C17.8886 14.2564 18.0025 13.1003 18.4377 12.0496C18.8729 10.9989 19.6099 10.1009 20.5555 9.46906C21.501 8.83724 22.6127 8.50001 23.75 8.50001C25.2746 8.50134 26.7363 9.10756 27.8144 10.1856C28.8924 11.2637 29.4987 12.7254 29.5 14.25ZM3.05999 10.345C3.37999 6.12001 7.81998 3.63001 11.38 5.79001C11.8443 6.09114 12.2707 6.44703 12.65 6.85001C13.355 7.56501 14.78 8.00001 16.38 8.00001H16.5V7.00001C15 7.00001 13.92 6.63001 13.44 6.21001C13.8598 6.1534 14.2633 6.01039 14.625 5.79001C15.2382 5.41389 15.9208 5.16504 16.6323 5.05832C17.3437 4.95159 18.0693 4.98916 18.7659 5.16879C19.4625 5.34842 20.1158 5.66643 20.6869 6.10387C21.2579 6.54132 21.7351 7.08925 22.09 7.71501C20.6568 8.06961 19.3795 8.88465 18.4542 10.0351C17.5288 11.1855 17.0065 12.6078 16.9673 14.0836C16.9282 15.5595 17.3743 17.0075 18.2374 18.2054C19.1004 19.4033 20.3326 20.2849 21.745 20.715L21.625 21.16C20.455 25.27 18.7 27.5 17.695 27.5C17.395 27.315 17.055 25.73 16.835 24.685C16.235 21.89 15.5 18.4 13 18.4C10.5 18.4 9.76499 21.9 9.16499 24.695C8.94499 25.74 8.60498 27.325 8.35498 27.5C7.29998 27.5 5.54499 25.27 4.35499 21.14C3.49999 18.025 2.73499 14.56 3.05999 10.345Z" fill="white"/>
<path d="M8.54999 7V6C5.97999 6 4.21999 8.295 4.04999 10.42L5.04999 10.495C5.17999 8.815 6.55499 7 8.54999 7Z" fill="white"/>
<path d="M19.445 13.5C19.8447 13.5626 20.2144 13.7501 20.5009 14.0358C20.7875 14.3214 20.9762 14.6905 21.04 15.09C21.04 15.2227 21.0927 15.3498 21.1864 15.4436C21.2802 15.5374 21.4074 15.59 21.54 15.59C21.6726 15.59 21.7998 15.5374 21.8935 15.4436C21.9873 15.3498 22.04 15.2227 22.04 15.09C22.1023 14.694 22.2874 14.3276 22.569 14.0423C22.8507 13.7571 23.2148 13.5674 23.61 13.5C23.7426 13.5 23.8698 13.4474 23.9635 13.3536C24.0573 13.2598 24.11 13.1327 24.11 13C24.11 12.8674 24.0573 12.7403 23.9635 12.6465C23.8698 12.5527 23.7426 12.5 23.61 12.5C23.2089 12.441 22.837 12.2562 22.5476 11.9723C22.2583 11.6883 22.0666 11.3199 22 10.92C22 10.7874 21.9473 10.6603 21.8535 10.5665C21.7598 10.4727 21.6326 10.42 21.5 10.42C21.3674 10.42 21.2402 10.4727 21.1464 10.5665C21.0527 10.6603 21 10.7874 21 10.92C20.9366 11.3121 20.753 11.6748 20.4743 11.9579C20.1957 12.241 19.836 12.4305 19.445 12.5C19.3124 12.5 19.1852 12.5527 19.0914 12.6465C18.9977 12.7403 18.945 12.8674 18.945 13C18.945 13.1327 18.9977 13.2598 19.0914 13.3536C19.1852 13.4474 19.3124 13.5 19.445 13.5ZM21.525 12.3C21.7168 12.5748 21.9575 12.8121 22.235 13C21.9566 13.191 21.7159 13.4317 21.525 13.71C21.3373 13.4307 21.098 13.1897 20.82 13C21.098 12.8104 21.3373 12.5694 21.525 12.29V12.3Z" fill="white"/>
<path d="M23.545 15.59C24.0457 15.6722 24.508 15.9094 24.8668 16.2682C25.2256 16.627 25.4628 17.0893 25.545 17.59C25.545 17.7226 25.5977 17.8498 25.6914 17.9435C25.7852 18.0373 25.9124 18.09 26.045 18.09C26.1776 18.09 26.3048 18.0373 26.3985 17.9435C26.4923 17.8498 26.545 17.7226 26.545 17.59C26.6265 17.089 26.8635 16.6263 27.2224 16.2674C27.5813 15.9084 28.044 15.6715 28.545 15.59C28.6776 15.59 28.8048 15.5373 28.8985 15.4435C28.9923 15.3498 29.045 15.2226 29.045 15.09C29.045 14.9574 28.9923 14.8302 28.8985 14.7364C28.8048 14.6426 28.6776 14.59 28.545 14.59C28.044 14.5085 27.5813 14.2715 27.2224 13.9126C26.8635 13.5537 26.6265 13.091 26.545 12.59C26.545 12.4574 26.4923 12.3302 26.3985 12.2364C26.3048 12.1426 26.1776 12.09 26.045 12.09C25.9124 12.09 25.7852 12.1426 25.6914 12.2364C25.5977 12.3302 25.545 12.4574 25.545 12.59C25.4628 13.0907 25.2256 13.553 24.8668 13.9117C24.508 14.2705 24.0457 14.5077 23.545 14.59C23.4124 14.59 23.2852 14.6426 23.1914 14.7364C23.0977 14.8302 23.045 14.9574 23.045 15.09C23.045 15.2226 23.0977 15.3498 23.1914 15.4435C23.2852 15.5373 23.4124 15.59 23.545 15.59ZM26.045 14.09C26.3039 14.5071 26.6566 14.8581 27.075 15.115C26.6566 15.3718 26.3039 15.7228 26.045 16.14C25.795 15.7258 25.4528 15.375 25.045 15.115C25.4472 14.8482 25.7826 14.4923 26.025 14.075L26.045 14.09Z" fill="white"/>
</svg>
