<svg width="32" height="32" viewBox="0 0 32 32" fill="none" xmlns="http://www.w3.org/2000/svg">
<path d="M18.96 17.47C20.46 17.47 21.645 15.065 22.275 12.82C23.0029 10.5071 23.2995 8.08015 23.15 5.66003C23.1134 4.91289 22.8848 4.1878 22.4863 3.55479C22.0877 2.92179 21.5326 2.40226 20.8747 2.04639C20.2167 1.69052 19.4781 1.51033 18.7302 1.52323C17.9822 1.53613 17.2503 1.74168 16.605 2.12003C16.4234 2.23303 16.2138 2.29292 16 2.29292C15.7861 2.29292 15.5765 2.23303 15.395 2.12003C14.7497 1.74168 14.0177 1.53613 13.2698 1.52323C12.5219 1.51033 11.7833 1.69052 11.1253 2.04639C10.4673 2.40226 9.91228 2.92179 9.5137 3.55479C9.11513 4.1878 8.88653 4.91289 8.84998 5.66003C8.70044 8.08015 8.99703 10.5071 9.72498 12.82C10.355 15.065 11.56 17.47 13.04 17.47C13.84 17.47 14.04 16.47 14.36 15.03C14.68 13.59 15.075 11.67 16 11.67C16.925 11.67 17.34 13.615 17.64 15.03C17.94 16.445 18.16 17.47 18.96 17.47ZM16 10.67C13.54 10.67 13.53 15.425 12.94 16.455C12.39 16.315 11.4 15.085 10.685 12.55C9.99156 10.3487 9.70853 8.03867 9.84998 5.73503C10.035 3.29003 12.66 1.63503 14.875 2.97503C15.1578 3.16075 15.4179 3.3789 15.65 3.62503C16.3551 4.19146 17.2476 4.47171 18.15 4.41003H18.235V3.41003C17.7226 3.43241 17.2112 3.34548 16.735 3.15503C17.28 2.96003 17.71 2.50003 18.835 2.50003C19.689 2.5363 20.4995 2.88649 21.1112 3.48346C21.723 4.08044 22.0929 4.88219 22.15 5.73503C22.2914 8.03867 22.0084 10.3487 21.315 12.55C20.6 15.085 19.61 16.315 19.06 16.455C18.46 15.405 18.46 10.67 16 10.67Z" fill="white"/>
<path d="M10.845 5.81L11.845 5.89C11.8613 5.53838 12.0037 5.20439 12.2461 4.94915C12.4885 4.6939 12.8147 4.53446 13.165 4.5V3.5C12.5622 3.53329 11.9927 3.78707 11.5649 4.21302C11.1371 4.63898 10.8809 5.20737 10.845 5.81Z" fill="white"/>
<path d="M12.77 19.4101L10.12 17.8651C9.84041 17.7034 9.52374 17.6169 9.2008 17.614C8.87787 17.6111 8.55968 17.6918 8.27723 17.8484C7.99478 18.005 7.75769 18.2321 7.58907 18.5075C7.42044 18.7829 7.32601 19.0973 7.31499 19.4201L6.93499 19.1851L5.23999 12.4051C5.14981 12.0026 4.90345 11.6524 4.5551 11.4316C4.20676 11.2108 3.78495 11.1374 3.38249 11.2276C2.98002 11.3177 2.62986 11.5641 2.40904 11.9125C2.18821 12.2608 2.11481 12.6826 2.20499 13.0851L3.99999 22.1001C4.06999 22.4551 3.99999 22.2001 8.99999 25.7601V30.0001C8.99999 30.1327 9.05266 30.2599 9.14643 30.3536C9.2402 30.4474 9.36738 30.5001 9.49999 30.5001H14.5C14.6326 30.5001 14.7598 30.4474 14.8535 30.3536C14.9473 30.2599 15 30.1327 15 30.0001V23.2951C14.9999 22.5092 14.794 21.737 14.4027 21.0554C14.0115 20.3738 13.4486 19.8065 12.77 19.4101ZM14 29.5001H9.99999V25.5001C9.99985 25.4195 9.98023 25.3401 9.9428 25.2687C9.90536 25.1973 9.85122 25.136 9.78499 25.0901L4.94999 21.7051L3.18999 12.8901C3.16825 12.7511 3.2001 12.609 3.2791 12.4926C3.35809 12.3762 3.47835 12.2942 3.61554 12.2631C3.75273 12.2319 3.89661 12.2541 4.01811 12.325C4.1396 12.3959 4.22963 12.5103 4.26999 12.6451C6.10999 19.7901 5.91999 19.7251 6.23499 19.9251L10.235 22.4251C10.3466 22.4945 10.4811 22.5171 10.6093 22.4881C10.7375 22.4591 10.8491 22.3808 10.92 22.2701C10.9903 22.1596 11.0145 22.026 10.9874 21.898C10.9603 21.7699 10.884 21.6575 10.775 21.5851L8.69999 20.2001C8.50505 20.0787 8.3663 19.8849 8.31426 19.6613C8.26222 19.4377 8.30115 19.2025 8.42249 19.0076C8.54382 18.8126 8.73763 18.6739 8.96126 18.6218C9.1849 18.5698 9.42005 18.6087 9.61499 18.7301L12.265 20.2751C12.7897 20.5815 13.2256 21.0192 13.5299 21.5453C13.8341 22.0713 13.9961 22.6674 14 23.2751V29.5001Z" fill="white"/>
<path d="M28.645 11.27C28.2453 11.1715 27.8228 11.2351 27.4697 11.4467C27.1166 11.6584 26.8615 12.0011 26.76 12.4L25.065 19.185L24.685 19.42C24.6769 19.0961 24.5842 18.7798 24.4163 18.5027C24.2483 18.2256 24.0108 17.9971 23.7274 17.84C23.444 17.6829 23.1244 17.6025 22.8004 17.6069C22.4763 17.6113 22.1591 17.7003 21.88 17.865L19.23 19.41C18.5514 19.8065 17.9885 20.3737 17.5972 21.0553C17.206 21.7369 17.0001 22.5091 17 23.295V30C17 30.1326 17.0527 30.2598 17.1464 30.3536C17.2402 30.4474 17.3674 30.5 17.5 30.5H22.5C22.6326 30.5 22.7598 30.4474 22.8536 30.3536C22.9473 30.2598 23 30.1326 23 30V25.76L27.785 22.41C27.8944 22.3387 27.9716 22.2275 28 22.1L29.805 13.1C29.8864 12.7041 29.8109 12.2921 29.5945 11.9508C29.3782 11.6094 29.0377 11.3654 28.645 11.27ZM28.815 12.89L27.05 21.705L22.215 25.09C22.1488 25.136 22.0946 25.1973 22.0572 25.2686C22.0198 25.34 22.0001 25.4194 22 25.5V29.5H18V23.295C18.0039 22.6874 18.1659 22.0912 18.4701 21.5652C18.7743 21.0392 19.2103 20.6014 19.735 20.295L22.385 18.75C22.5754 18.6629 22.791 18.6478 22.9918 18.7075C23.1925 18.7673 23.3647 18.8978 23.4765 19.0749C23.5883 19.2521 23.632 19.4637 23.5995 19.6706C23.5671 19.8775 23.4606 20.0656 23.3 20.2L21.225 21.585C21.116 21.6575 21.0397 21.7698 21.0126 21.8979C20.9855 22.026 21.0097 22.1596 21.08 22.27C21.1509 22.3807 21.2625 22.459 21.3907 22.488C21.5189 22.5171 21.6534 22.4944 21.765 22.425C25.915 19.77 25.9 19.97 25.985 19.62L27.73 12.62C27.7655 12.4777 27.8559 12.3552 27.9814 12.2793C28.107 12.2034 28.2575 12.1803 28.4 12.215C28.5439 12.2506 28.668 12.3413 28.7457 12.4676C28.8233 12.5939 28.8482 12.7456 28.815 12.89Z" fill="white"/>
</svg>
