<svg width="32" height="32" viewBox="0 0 32 32" fill="none" xmlns="http://www.w3.org/2000/svg">
<path d="M30 23H27.815L22.5 19.145L22.925 5.57999C22.9315 5.17729 22.843 4.77873 22.6668 4.41657C22.4906 4.05442 22.2316 3.73885 21.9107 3.49541C21.5899 3.25197 21.2162 3.08751 20.82 3.01534C20.4237 2.94317 20.0161 2.96531 19.63 3.07999L18.24 3.42499C17.6669 2.94246 16.934 2.69181 16.1855 2.72234C15.4369 2.75288 14.7269 3.06238 14.195 3.58999C13.95 3.87499 13.695 3.98499 13.695 4.29999C13.6969 4.43187 13.7508 4.55767 13.845 4.64999L17.38 8.18499C17.4737 8.27811 17.6004 8.33039 17.7325 8.33039C17.8646 8.33039 17.9913 8.27811 18.085 8.18499L18.44 7.83499C18.8944 7.37594 19.1885 6.78249 19.2786 6.14289C19.3687 5.50329 19.2499 4.85169 18.94 4.28499C19.5 4.17499 20.69 3.60999 21.5 4.45499C21.6409 4.59953 21.7511 4.77101 21.8241 4.95916C21.8972 5.14731 21.9315 5.34827 21.925 5.54999L21.5 19H12V17.5C12 17.2348 12.1054 16.9804 12.2929 16.7929C12.4804 16.6053 12.7348 16.5 13 16.5V17C13 17.1326 13.0527 17.2598 13.1464 17.3535C13.2402 17.4473 13.3674 17.5 13.5 17.5H19C19.1326 17.5 19.2598 17.4473 19.3536 17.3535C19.4473 17.2598 19.5 17.1326 19.5 17V15C19.5 14.8674 19.4473 14.7402 19.3536 14.6464C19.2598 14.5527 19.1326 14.5 19 14.5H13.5C13.3674 14.5 13.2402 14.5527 13.1464 14.6464C13.0527 14.7402 13 14.8674 13 15V15.5C12.4696 15.5 11.9609 15.7107 11.5858 16.0858C11.2107 16.4608 11 16.9696 11 17.5V19H10.28L4.025 9.53999C3.98786 9.48371 3.93973 9.43552 3.88348 9.39833C3.82724 9.36113 3.76406 9.3357 3.69773 9.32356C3.6314 9.31141 3.56331 9.31281 3.49753 9.32766C3.43176 9.34252 3.36967 9.37052 3.315 9.40999L1.705 10.595C1.6014 10.6712 1.53112 10.7843 1.50877 10.9109C1.48642 11.0376 1.51372 11.168 1.585 11.275L8.585 21.775C8.6303 21.8438 8.69188 21.9003 8.76428 21.9395C8.83668 21.9788 8.91765 21.9996 9 22H12.5V23.5C12.5 23.6326 12.5527 23.7598 12.6464 23.8535C12.7402 23.9473 12.8674 24 13 24H13.5V28H11.5V29H20.5V28H18.5V24H19C19.1326 24 19.2598 23.9473 19.3536 23.8535C19.4473 23.7598 19.5 23.6326 19.5 23.5V22H21.335C26.905 26 26.695 26 27 26H30C30.1326 26 30.2598 25.9473 30.3536 25.8535C30.4473 25.7598 30.5 25.6326 30.5 25.5V23.5C30.5 23.3674 30.4473 23.2402 30.3536 23.1464C30.2598 23.0527 30.1326 23 30 23ZM17.745 7.11999L14.915 4.29499C15.2928 3.93541 15.7961 3.73764 16.3177 3.74385C16.8392 3.75006 17.3377 3.95976 17.7068 4.32824C18.0759 4.69672 18.2865 5.19483 18.2937 5.71635C18.3008 6.23787 18.1039 6.74155 17.745 7.11999ZM14 15.5H18.5V16.5H14V15.5ZM17.5 28H14.5V24H17.5V28ZM18.5 23H13.5V22H18.5V23ZM29.5 25H27.165C21.595 21 21.805 21 21.5 21H9.27L2.68 11.12L3.5 10.53L9.595 19.775C9.63935 19.8424 9.69935 19.898 9.76987 19.9372C9.84039 19.9764 9.91935 19.9979 10 20H22L27.365 23.905C27.4508 23.9671 27.5541 24.0004 27.66 24H29.5V25Z" fill="white"/>
</svg>
