<svg width="32" height="32" viewBox="0 0 32 32" fill="none" xmlns="http://www.w3.org/2000/svg">
<path d="M28.45 23.66C28.2956 22.7577 27.8697 21.924 27.2292 21.27C26.5886 20.6161 25.7639 20.173 24.865 20L18.5 18.75V17.945C19.4773 17.5009 20.3176 16.8027 20.9332 15.9233C21.5489 15.0438 21.9172 14.0153 22 12.945C22.471 12.8479 22.904 12.6171 23.2471 12.2801C23.5902 11.9431 23.8288 11.5144 23.9343 11.0452C24.0399 10.576 24.0079 10.0864 23.8422 9.63493C23.6764 9.1835 23.384 8.78944 23 8.5C23.17 7.84 23.88 4.675 22.34 3.135C21.19 2 19.44 2.245 18.69 2.425C18.33 2.045 17.55 1.5 16 1.5C13.825 1.5 10.19 1.5 9.055 3.775C8.15999 5.56 8.55499 7.95 8.70499 8.775C8.39679 9.09726 8.18039 9.49609 8.07822 9.93014C7.97605 10.3642 7.99184 10.8177 8.12395 11.2436C8.25605 11.6695 8.49966 12.0523 8.82953 12.3523C9.1594 12.6524 9.56352 12.8587 9.99999 12.95C10.0827 14.0203 10.4511 15.0488 11.0668 15.9283C11.6824 16.8077 12.5227 17.5059 13.5 17.95V18.75L7.13499 20C6.2361 20.173 5.41134 20.6161 4.77079 21.27C4.13025 21.924 3.70437 22.7577 3.54999 23.66L2.49999 29.92C2.48831 29.992 2.49254 30.0658 2.51238 30.136C2.53222 30.2062 2.56719 30.2712 2.61484 30.3265C2.66249 30.3818 2.72166 30.426 2.7882 30.4559C2.85473 30.4859 2.92702 30.5009 2.99999 30.5H29C29.073 30.5009 29.1453 30.4859 29.2118 30.4559C29.2783 30.426 29.3375 30.3818 29.3852 30.3265C29.4328 30.2712 29.4678 30.2062 29.4876 30.136C29.5075 30.0658 29.5117 29.992 29.5 29.92L28.45 23.66ZM23 10.5C22.9991 10.8095 22.9026 11.1111 22.7235 11.3635C22.5445 11.616 22.2918 11.8068 22 11.91V9.66V9.16L22.13 9.12C22.3927 9.24155 22.6146 9.43652 22.769 9.68139C22.9234 9.92626 23.0036 10.2106 23 10.5ZM9.49999 9.375L9.99999 9.205V11.91C9.75387 11.8234 9.53459 11.6741 9.3638 11.4769C9.19301 11.2796 9.07663 11.0413 9.02614 10.7853C8.97565 10.5293 8.9928 10.2646 9.0759 10.0172C9.159 9.76993 9.30518 9.54856 9.49999 9.375ZM10.5 8C10.1975 8.00592 9.89818 8.06341 9.61499 8.17C9.46499 7.245 9.30999 5.5 9.94499 4.225C10.81 2.5 14.185 2.5 16 2.5C17.62 2.5 18.04 3.205 18.055 3.225C18.1099 3.33266 18.2019 3.41679 18.3141 3.46184C18.4262 3.50688 18.5509 3.50978 18.665 3.47C18.665 3.47 20.605 2.815 21.665 3.855C22.725 4.895 22.355 7.045 22.105 8.1C21.48 8.315 21.28 8.285 21.105 8.5H18.23C18.6179 8.06894 18.8726 7.53469 18.9632 6.96191C19.0538 6.38913 18.9764 5.80237 18.7405 5.27264C18.5045 4.74291 18.1201 4.29291 17.6337 3.97711C17.1474 3.66131 16.5799 3.49324 16 3.49324C15.4201 3.49324 14.8526 3.66131 14.3663 3.97711C13.8799 4.29291 13.4955 4.74291 13.2595 5.27264C13.0236 5.80237 12.9462 6.38913 13.0368 6.96191C13.1274 7.53469 13.3821 8.06894 13.77 8.5H11C11 8.43434 10.9871 8.36932 10.9619 8.30866C10.9368 8.248 10.9 8.19288 10.8535 8.14645C10.8071 8.10002 10.752 8.06319 10.6913 8.03806C10.6307 8.01293 10.5657 8 10.5 8ZM18 6.5C18 6.89556 17.8827 7.28224 17.6629 7.61114C17.4432 7.94004 17.1308 8.19638 16.7654 8.34776C16.3999 8.49913 15.9978 8.53874 15.6098 8.46157C15.2219 8.3844 14.8655 8.19392 14.5858 7.91421C14.3061 7.63451 14.1156 7.27814 14.0384 6.89018C13.9613 6.50222 14.0009 6.10009 14.1522 5.73463C14.3036 5.36918 14.56 5.05682 14.8889 4.83706C15.2178 4.6173 15.6044 4.5 16 4.5C16.5304 4.5 17.0391 4.71071 17.4142 5.08579C17.7893 5.46086 18 5.96957 18 6.5ZM11 9.5H21V9.66C21 12.51 21 12.5 21 12.96C19.4201 12.2897 17.7158 11.9625 16 12C14.2926 11.9661 12.5972 12.2932 11.025 12.96C11 12.5 11 12.5 11 9.5ZM11.22 13.97C12.7191 13.2883 14.3537 12.9565 16 13C17.6484 12.968 19.2826 13.3099 20.78 14C20.4661 15.0228 19.8324 15.918 18.972 16.554C18.1116 17.19 17.0699 17.5332 16 17.5332C14.9301 17.5332 13.8884 17.19 13.028 16.554C12.1676 15.918 11.5339 15.0228 11.22 14V13.97ZM14.095 19.65C14.2106 19.6277 14.3145 19.5653 14.3886 19.4738C14.4627 19.3823 14.5021 19.2677 14.5 19.15V18.305C15.4831 18.5651 16.5169 18.5651 17.5 18.305V19.16C17.4979 19.2777 17.5373 19.3923 17.6114 19.4838C17.6855 19.5753 17.7894 19.6377 17.905 19.66L18.7 19.815L15.91 21.785L13.26 19.825L14.095 19.65ZM3.58999 29.5L4.53499 23.825C4.65269 23.1206 4.98308 22.469 5.4818 21.9578C5.98051 21.4465 6.62369 21.1001 7.32499 20.965L11.595 20.135L13.125 29.5H3.58999ZM14.135 29.5L12.685 20.63L15.605 22.795C15.6902 22.8564 15.7925 22.8895 15.8975 22.8895C16.0025 22.8895 16.1048 22.8564 16.19 22.795L19.32 20.59L17.865 29.5H14.135ZM18.875 29.5L20.405 20.135L24.675 20.965C25.3763 21.1001 26.0195 21.4465 26.5182 21.9578C27.0169 22.469 27.3473 23.1206 27.465 23.825L28.41 29.5H18.875Z" fill="white"/>
<path d="M16 7C16.2761 7 16.5 6.77614 16.5 6.5C16.5 6.22386 16.2761 6 16 6C15.7239 6 15.5 6.22386 15.5 6.5C15.5 6.77614 15.7239 7 16 7Z" fill="white"/>
</svg>
