<svg width="20" height="20" viewBox="0 0 20 20" fill="none" xmlns="http://www.w3.org/2000/svg">
<g clip-path="url(#clip0_115_1519)">
<path d="M18.6717 10.2591C18.5913 10.0945 18.5913 9.90564 18.6717 9.74103L19.4177 8.21506C19.833 7.36542 19.5039 6.35273 18.6685 5.90949L17.1681 5.1134C17.0063 5.02754 16.8953 4.87473 16.8636 4.6943L16.5702 3.02131C16.4068 2.08983 15.5451 1.46389 14.6089 1.59635L12.9272 1.83424C12.7457 1.85987 12.5662 1.80151 12.4345 1.67413L11.2138 0.493195C10.534 -0.164379 9.4692 -0.164418 8.78952 0.493195L7.56875 1.67424C7.43703 1.80166 7.25754 1.85991 7.07605 1.83436L5.39431 1.59647C4.45779 1.46393 3.59647 2.08994 3.43307 3.02142L3.13963 4.69434C3.10795 4.87481 2.99698 5.02758 2.83514 5.11348L1.33476 5.90957C0.499375 6.35277 0.170314 7.36554 0.585624 8.21518L1.33152 9.74111C1.41199 9.90576 1.41199 10.0946 1.33152 10.2592L0.585585 11.7851C0.170275 12.6348 0.499336 13.6475 1.33472 14.0907L2.8351 14.8868C2.99698 14.9726 3.10795 15.1255 3.13963 15.3059L3.43307 16.9789C3.58182 17.8268 4.30892 18.4215 5.14458 18.4214C5.22689 18.4214 5.3104 18.4157 5.39435 18.4038L7.07609 18.1659C7.25746 18.1402 7.43707 18.1986 7.56879 18.326L8.78952 19.507C9.12944 19.8358 9.56546 20.0002 10.0016 20.0001C10.4377 20.0001 10.874 19.8357 11.2137 19.507L12.4345 18.326C12.5662 18.1986 12.7457 18.1404 12.9272 18.1659L14.6089 18.4038C15.5456 18.5363 16.4068 17.9103 16.5702 16.9788L16.8637 15.3059C16.8953 15.1255 17.0063 14.9727 17.1681 14.8868L18.6685 14.0907C19.5039 13.6475 19.833 12.6347 19.4177 11.7851L18.6717 10.2591Z" fill="#02A1C1"/>
<path d="M8.73886 13.3333L5.83594 10.454L6.73584 9.49734L8.72274 11.4553L13.2519 6.66667L14.1693 7.60601L8.73886 13.3333Z" fill="white"/>
<path d="M5.83594 10.454L8.73886 13.3333L14.1693 7.60601L13.2519 6.66667L8.72274 11.4553L6.73584 9.49734L5.83594 10.454Z" fill="white"/>
</g>
<defs>
<clipPath id="clip0_115_1519">
<rect width="20" height="20" fill="white"/>
</clipPath>
</defs>
</svg>
