<svg width="40" height="40" viewBox="0 0 40 40" fill="none" xmlns="http://www.w3.org/2000/svg">
<path d="M1.8667 3.21266L3.60499 1.15552L5.34324 3.21266H1.8667Z" fill="white"/>
<path d="M7.51609 1.15552H4.03955L5.77782 3.21266L7.51609 1.15552Z" fill="white"/>
<path d="M7.95066 1.15552L9.68892 3.21266H6.21238L7.95066 1.15552Z" fill="white"/>
<path d="M5.77782 7.55552L4.03955 3.44123H7.51609L5.77782 7.55552Z" fill="white"/>
<path d="M5.34324 7.38629L1.90981 3.44123H3.60497L5.34324 7.38629Z" fill="white"/>
<path d="M7.95065 3.44123L6.21238 7.38629L9.64581 3.44123H7.95065Z" fill="white"/>
<path fill-rule="evenodd" clip-rule="evenodd" d="M24.9496 1.20715C21.0779 1.20715 17.7094 2.54456 15.3128 5.08397C12.9206 7.61874 11.5895 11.2516 11.5895 15.6781C11.5895 20.1047 12.9206 23.7375 15.3128 26.2723C17.7094 28.8117 21.0779 30.1491 24.9496 30.1491C27.0323 30.1491 28.9935 29.7482 30.7398 28.9251L32.8043 31.6419L37.1072 29.1256L34.7506 26.0119C36.9587 23.613 38.178 20.2667 38.2729 16.2L38.2844 16.1907V15.6781C38.2844 11.2521 36.9533 7.61966 34.5648 5.08498C32.1719 2.54557 28.8098 1.20715 24.9496 1.20715ZM24.9441 25.2518H24.7961C22.4938 25.2173 20.6386 24.3768 19.3371 22.8666C17.9928 21.3067 17.1448 18.9207 17.1448 15.6825C17.1448 12.4444 17.9928 10.0583 19.3371 8.49849C20.6664 6.95599 22.5733 6.11215 24.9441 6.11215C27.3147 6.11215 29.2144 6.95543 30.5371 8.49647C31.8755 10.0557 32.7182 12.442 32.7182 15.6825C32.7182 18.1433 32.2331 20.108 31.4145 21.5938L29.0285 18.4326L24.6996 20.9871L27.6226 24.8337C26.8183 25.1074 25.9231 25.2518 24.9441 25.2518Z" fill="white"/>
<path d="M3.02095 7.61997V29.3305H8.29208V7.61997H3.02095Z" fill="white"/>
<path d="M8.21167 37.136C8.05212 37.6153 7.85953 38.0829 7.6353 38.5356C7.00334 38.6669 6.36079 38.7407 5.71552 38.756C3.20944 38.756 1.93105 37.2826 1.93105 35.6592C1.93105 33.7681 3.55549 32.4633 5.90507 32.4633C6.60574 32.4633 7.20521 32.5645 7.60103 32.6313C7.71447 32.6504 7.8112 32.6668 7.88877 32.6771C7.93065 33.0947 8.00449 33.6502 8.08824 34.1097L7.76313 34.1748C7.55374 33.5532 7.30137 33.173 6.77128 32.979C6.41712 32.8561 6.04408 32.7964 5.66923 32.8027C3.939 32.8027 3.0243 33.9334 3.0243 35.4631C3.0243 37.2528 4.07345 38.4034 5.77172 38.4034C6.84182 38.4034 7.36529 37.9625 7.90089 37.0401L8.21167 37.136Z" fill="white"/>
<path d="M14.4824 37.0799C14.4196 37.3676 14.1055 38.3319 13.9997 38.6228H9.12308V38.3638C10.0775 38.2801 10.1612 38.2338 10.1612 37.4458V33.7606C10.1612 32.9726 10.0565 32.9263 9.21785 32.8525V32.5924H12.0281V32.8525C11.1883 32.9263 11.0737 32.9627 11.0737 33.7606V37.5351C11.0737 38.1004 11.1575 38.2305 11.7548 38.2393L12.5835 38.2492C13.118 38.2492 13.2756 38.193 13.517 37.9616C13.7878 37.6858 14.0046 37.3617 14.1562 37.0061L14.4824 37.0799Z" fill="white"/>
<path d="M15.1734 38.3605V38.6195H17.9836V38.3605C17.113 38.2768 17.0293 38.2492 17.0293 37.4513V33.7705C17.0293 32.9726 17.113 32.9362 17.9836 32.8525V32.5924H15.1734V32.8525C16.033 32.9362 16.1168 32.9726 16.1168 33.7705V37.4513C16.1168 38.2393 16.033 38.2768 15.1734 38.3605Z" fill="white"/>
<path d="M26.2876 32.8525C25.6164 32.9175 25.396 33.01 25.3652 33.4365L25.3626 33.5026L25.3603 33.5625C25.3489 33.8467 25.3332 34.2387 25.3332 34.9794V38.6978H24.9343L20.4467 33.8487V36.163C20.4467 36.9973 20.4787 37.415 20.4996 37.6839C20.5205 38.1566 20.7828 38.2955 21.5377 38.3517V38.6107H18.9898V38.3517C19.6389 38.3043 19.8913 38.1655 19.9331 37.7114C19.9767 37.1936 19.994 36.6738 19.9849 36.1542V33.798C19.9849 33.5379 19.964 33.3903 19.7756 33.1864C19.5761 32.9538 19.3568 32.8987 18.8421 32.8558V32.5957H20.4158L24.8615 37.2596V34.9849C24.8723 34.4701 24.8546 33.955 24.8086 33.4421C24.7778 33.0255 24.5364 32.891 23.6978 32.8491V32.5891H26.2876V32.8525Z" fill="white"/>
<path d="M27.1252 38.3605V38.6195H29.9354V38.3605C29.0659 38.2768 28.981 38.2492 28.981 37.4513V33.7705C28.981 32.9726 29.0659 32.9362 29.9354 32.8525V32.5924H27.1252V32.8525C27.9848 32.9362 28.0696 32.9726 28.0696 33.7705V37.4513C28.0696 38.2393 27.9848 38.2768 27.1252 38.3605Z" fill="white"/>
<path d="M37.2123 37.136C37.0532 37.6155 36.8606 38.0832 36.6359 38.5356C36.0043 38.6669 35.3621 38.7407 34.7172 38.756C32.2111 38.756 30.9316 37.2826 30.9316 35.6592C30.9316 33.7681 32.5561 32.4633 34.9057 32.4633C35.6063 32.4633 36.2058 32.5645 36.6016 32.6313C36.7149 32.6504 36.8118 32.6668 36.8894 32.6771C36.9312 33.0948 37.0051 33.6502 37.0888 34.1098L36.7582 34.1748C36.5488 33.5532 36.2964 33.173 35.7664 32.979C35.4122 32.8561 35.0392 32.7964 34.6643 32.8027C32.9341 32.8027 32.0194 33.9334 32.0194 35.4631C32.0194 37.2528 33.0685 38.4034 34.7668 38.4034C35.8369 38.4034 36.3604 37.9626 36.896 37.0401L37.2123 37.136Z" fill="white"/>
</svg>
