<svg width="0" height="0" class="hidden">
  <symbol xmlns="http://www.w3.org/2000/svg" viewBox="0 0 6 12" id="ic_arr_hor">
    <path d="M1.81066 6.00001L5.78034 1.46324C6.07322 1.1285 6.07322 0.58579 5.78034 0.251049C5.48747 -0.083683 5.01257 -0.083683 4.71969 0.251049L0.219668 5.39392C-0.0732227 5.72864 -0.0732227 6.27138 0.219668 6.6061L4.71969 11.749C5.01257 12.0837 5.48747 12.0837 5.78034 11.749C6.07322 11.4142 6.07322 10.8715 5.78034 10.5368L1.81066 6.00001Z" fill="currentColor"></path>
  </symbol>
  <symbol xmlns="http://www.w3.org/2000/svg" viewBox="0 0 32 32" id="ic_arrow_hor">
    <path d="M11.219 23.6C10.9524 23.8667 10.6857 24 10.2857 24C9.88571 24 9.61904 23.8667 9.35237 23.6L2.68571 16.9333C2.15237 16.4 2.15237 15.6 2.68571 15.0667L9.35237 8.4C9.88571 7.86667 10.6857 7.86667 11.219 8.4C11.7524 8.93333 11.7524 9.73333 11.219 10.2667L6.62856 14.8571H28.019C28.8076 14.8571 29.3333 15.3143 29.3333 16C29.3333 16.6857 28.8076 17.1429 28.019 17.1429H6.62856L11.219 21.7333C11.7524 22.2667 11.7524 23.0667 11.219 23.6Z" fill="currentColor"></path>
  </symbol>
  <symbol version="1.1" id="ic_buttonUp" xmlns="http://www.w3.org/2000/svg" xmlns:xlink="http://www.w3.org/1999/xlink" x="0px" y="0px" xml:space="preserve" viewBox="0 0 444.819 444.819">
    <path d="M434.252,208.708L248.387,22.843c-7.042-7.043-15.693-10.564-25.977-10.564c-10.467,0-19.036,3.521-25.697,10.564
		L10.848,208.708C3.615,215.94,0,224.604,0,234.692c0,9.897,3.619,18.459,10.848,25.693l21.411,21.409
		c6.854,7.231,15.42,10.855,25.697,10.855c10.278,0,18.842-3.624,25.697-10.855l83.939-83.651v200.998
		c0,9.89,3.567,17.936,10.706,24.126c7.139,6.184,15.752,9.273,25.837,9.273h36.545c10.089,0,18.698-3.09,25.837-9.273
		c7.139-6.188,10.712-14.236,10.712-24.126V198.144l83.938,83.651c6.848,7.231,15.413,10.855,25.7,10.855
		c10.082,0,18.747-3.624,25.975-10.855l21.409-21.409c7.043-7.426,10.567-15.988,10.567-25.693
		C444.819,224.795,441.295,216.134,434.252,208.708z" fill="currentColor"></path>
  </symbol>
  <symbol xmlns="http://www.w3.org/2000/svg" viewBox="0 0 14 14" id="ic_calendar">
    <path d="M11.297 1.07815H10.7748V0.549744C10.7748 0.24784 10.5301 0.00311279 10.2282 0.00311279C9.92631 0.00311279 9.68158 0.24784 9.68158 0.549744V1.07815H4.31839V0.549744C4.31839 0.24784 4.07366 0.00311279 3.77176 0.00311279C3.46985 0.00311279 3.22513 0.24784 3.22513 0.549744V1.07815H2.70296C1.21254 1.07815 0 2.29068 0 3.78108V10.2939C0 11.7843 1.21254 12.9969 2.70296 12.9969H11.2971C12.7875 12.9969 14 11.7843 14 10.2939V3.78108C14 2.29068 12.7875 1.07815 11.297 1.07815ZM2.70296 2.17141H3.22513V3.23734C3.22513 3.53925 3.46985 3.78397 3.77176 3.78397C4.07366 3.78397 4.31839 3.53925 4.31839 3.23734V2.17141H9.68161V3.23734C9.68161 3.53925 9.92634 3.78397 10.2282 3.78397C10.5301 3.78397 10.7749 3.53925 10.7749 3.23734V2.17141H11.2971C12.1846 2.17141 12.9067 2.89351 12.9067 3.78108V5.30327H1.09326V3.78108C1.09326 2.89351 1.81536 2.17141 2.70296 2.17141ZM11.297 11.9036H2.70296C1.81536 11.9036 1.09326 11.1815 1.09326 10.2939V6.39654H12.9067V10.2939C12.9067 11.1815 12.1846 11.9036 11.297 11.9036Z" fill="currentColor"></path>
  </symbol>
  <symbol xmlns="http://www.w3.org/2000/svg" viewBox="0 0 16 16" id="ic_calendar2">
    <path d="M14 2H13.3334V0.666626C13.3334 0.298706 13.0347 0 12.6666 0H12C11.632 0 11.3334 0.298706 11.3334 0.666626V2H4.66663V0.666626C4.66663 0.298706 4.36804 0 4 0H3.33337C2.96533 0 2.66663 0.298706 2.66663 0.666626V2H2C0.897339 2 0 2.89734 0 4V14C0 15.1027 0.897339 16 2 16H14C15.1027 16 16 15.1027 16 14V4C16 2.89734 15.1027 2 14 2ZM14.6666 14C14.6666 14.3673 14.3673 14.6666 14 14.6666H2C1.63269 14.6666 1.33337 14.3673 1.33337 14V6.69336H14.6666V14Z" fill="currentColor"></path>
  </symbol>
  <symbol xmlns="http://www.w3.org/2000/svg" viewBox="0 0 10 10" id="ic_close">
    <path d="M3.82629 5.00008L0.247716 1.42151C-0.52497 0.691042 0.69106 -0.524991 1.42148 0.247738L5.00005 3.82632L8.57851 0.247852C9.30898 -0.524836 10.525 0.691155 9.75228 1.42162L6.17382 5.00008L9.75213 8.5784C10.5248 9.30887 9.30883 10.5249 8.57837 9.75217L5.00005 6.17385L1.42163 9.75228C0.691163 10.525 -0.524867 9.30894 0.247861 8.57852L3.82629 5.00008Z" fill="currentColor"></path>
  </symbol>
  <symbol xmlns="http://www.w3.org/2000/svg" viewBox="0 0 14 14" id="ic_comments">
    <path d="M10.4908 7.54683C10.4908 7.84887 10.246 8.0937 9.94396 8.0937H9.4153C9.11326 8.0937 8.86843 7.84887 8.86843 7.54683C8.86843 7.24479 9.11326 6.99996 9.4153 6.99996H9.94396C10.246 6.99996 10.4908 7.24479 10.4908 7.54683ZM7.51038 6.99996H3.77342C3.47138 6.99996 3.22654 7.24479 3.22654 7.54683C3.22654 7.84887 3.47138 8.0937 3.77342 8.0937H7.51038C7.81242 8.0937 8.05725 7.84887 8.05725 7.54683C8.05725 7.24479 7.81242 6.99996 7.51038 6.99996ZM10.2265 3.77342H3.77342C3.47138 3.77342 3.22654 4.01825 3.22654 4.32029C3.22654 4.62232 3.47138 4.86716 3.77342 4.86716H10.2265C10.5285 4.86716 10.7734 4.62232 10.7734 4.32029C10.7734 4.01825 10.5285 3.77342 10.2265 3.77342ZM13.9999 2.18749V9.67507C13.9999 10.8812 13.0186 11.8626 11.8124 11.8626H6.1373L4.38288 13.617C3.56153 14.4383 2.15104 13.85 2.15104 12.6925V11.8623C0.961565 11.8428 0 10.8691 0 9.67507V2.18749C0 0.981307 0.981307 0 2.18749 0H11.8124C13.0186 0 13.9999 0.981307 13.9999 2.18749ZM12.9062 2.18749C12.9062 1.5844 12.4155 1.09374 11.8124 1.09374H2.18749C1.5844 1.09374 1.09374 1.5844 1.09374 2.18749V9.67507C1.09374 10.2782 1.5844 10.7688 2.18749 10.7688C2.77048 10.7688 3.24478 11.2431 3.24478 11.8261V12.6925C3.24478 12.8817 3.47529 12.9778 3.60946 12.8436L5.37457 11.0785C5.57429 10.8788 5.8398 10.7688 6.1222 10.7688H11.8125C12.4155 10.7688 12.9062 10.2782 12.9062 9.67509V2.18749H12.9062Z" fill="currentColor"></path>
  </symbol>
  <symbol xmlns="http://www.w3.org/2000/svg" viewBox="0 0 16 14" id="ic_eye">
    <path d="M7.99992 2.54997C9.97009 2.54997 11.78 3.68799 13.1586 4.92972C14.4391 6.08313 15.2723 7.25705 15.4316 7.48157C15.4367 7.48871 15.441 7.49488 15.4447 7.50007C15.441 7.50533 15.4365 7.5116 15.4314 7.51885C15.2711 7.74461 14.4382 8.91763 13.1586 10.0703C11.78 11.312 9.97009 12.45 7.99992 12.45C6.02975 12.45 4.21979 11.312 2.84122 10.0702C1.55963 8.91589 0.726072 7.7409 0.567963 7.51803C0.563005 7.51104 0.558711 7.50499 0.555088 7.4999C0.558768 7.49474 0.563132 7.48859 0.568173 7.48148C0.72725 7.25734 1.56049 6.08326 2.84121 4.9297C4.2198 3.68799 6.02976 2.54997 7.99992 2.54997Z" stroke="currentColor" stroke-width="1.1" stroke-linejoin="round" fill="none"></path>
    <path d="M5.5 7.49997C5.5 6.12194 6.62197 4.99997 8 4.99997C9.37803 4.99997 10.5 6.12194 10.5 7.49997C10.5 8.878 9.37803 9.99997 8 9.99997C6.62197 9.99997 5.5 8.878 5.5 7.49997Z" stroke="currentColor" fill="none"></path>
  </symbol>
  <symbol xmlns="http://www.w3.org/2000/svg" viewBox="0 0 16 16" id="ic_location">
    <path fill-rule="evenodd" clip-rule="evenodd" d="M8.19901 0C10.0687 0 11.8266 0.697754 13.1487 1.96472C14.4707 3.23169 15.1989 4.91614 15.199 6.70789C15.199 8.49951 14.4709 10.1841 13.1487 11.451L8.54499 15.8627C8.44945 15.9542 8.32423 16 8.19901 16C8.07391 16 7.94869 15.9542 7.85315 15.8627L3.24916 11.4509C1.92714 10.1841 1.19901 8.49951 1.19901 6.70789C1.19901 4.91614 1.92714 3.23157 3.24916 1.96472C4.5713 0.697754 6.32923 0 8.19901 0ZM8.19901 9.05C9.57972 9.05 10.699 7.93072 10.699 6.55001C10.699 5.16929 9.57972 4.05001 8.19901 4.05001C6.81829 4.05001 5.69901 5.16929 5.69901 6.55001C5.69901 7.93072 6.81829 9.05 8.19901 9.05Z" fill="currentColor"></path>
  </symbol>
  <symbol xmlns="http://www.w3.org/2000/svg" viewBox="0 0 20 20" id="ic_menu">
    <path d="M4 5H16" stroke="currentColor" stroke-width="2" stroke-linecap="round" fill="none"></path>
    <path d="M4 10H16" stroke="currentColor" stroke-width="2" stroke-linecap="round" fill="none"></path>
    <path d="M4 15H16" stroke="currentColor" stroke-width="2" stroke-linecap="round" fill="none"></path>
  </symbol>
  <symbol xmlns="http://www.w3.org/2000/svg" viewBox="0 0 17 16" id="ic_metro">
    <path d="M15.2325 11.1425L11.4949 1L8.33334 6.92905L5.18454 1L1.43414 11.1425H0.333344V12.6797H5.99095V11.1425H5.14614L5.96534 8.61718L8.33334 12.7895L10.7013 8.61718L11.5205 11.1425H10.6757V12.6797H16.3333V11.1425H15.2325Z" fill="currentColor"></path>
  </symbol>
  <symbol xmlns="http://www.w3.org/2000/svg" viewBox="0 0 16 16" id="ic_phone">
    <path d="M12.1643 10.5843C11.6415 10.0683 10.989 10.0683 10.4696 10.5843C10.0734 10.9772 9.67717 11.3701 9.28762 11.7696C9.18108 11.8795 9.09119 11.9028 8.96134 11.8295C8.70497 11.6897 8.43196 11.5765 8.18558 11.4233C7.03692 10.7009 6.07471 9.77194 5.22237 8.7265C4.79953 8.2071 4.4233 7.65108 4.16027 7.02515C4.107 6.89863 4.11699 6.81539 4.2202 6.71218C4.61641 6.32929 5.00262 5.93642 5.39217 5.54354C5.93487 4.99751 5.93487 4.35826 5.38884 3.8089C5.0792 3.49593 4.76956 3.18962 4.45992 2.87665C4.1403 2.55703 3.824 2.23407 3.50104 1.91777C2.97832 1.40837 2.32575 1.40837 1.80635 1.9211C1.40682 2.31398 1.02393 2.71684 0.617738 3.10306C0.24151 3.45931 0.0517317 3.89546 0.0117783 4.40487C-0.0514812 5.2339 0.151615 6.01632 0.437948 6.77877C1.02393 8.35693 1.91622 9.75863 2.99829 11.0438C4.45992 12.7818 6.20455 14.1568 8.24551 15.149C9.16443 15.5951 10.1167 15.9381 11.1521 15.9947C11.8646 16.0346 12.4839 15.8548 12.98 15.2988C13.3196 14.9193 13.7025 14.573 14.0621 14.2101C14.5948 13.6707 14.5981 13.0182 14.0687 12.4854C13.4361 11.8495 12.8002 11.2169 12.1643 10.5843Z" fill="currentColor"></path>
    <path d="M11.5284 7.93074L12.7569 7.72098C12.5638 6.5923 12.0311 5.57016 11.2221 4.75777C10.3664 3.9021 9.28432 3.36273 8.09238 3.19626L7.91925 4.43148C8.84151 4.56133 9.68053 4.97751 10.3431 5.64007C10.969 6.26601 11.3785 7.05842 11.5284 7.93074Z" fill="currentColor"></path>
    <path d="M13.4495 2.59031C12.0311 1.17197 10.2366 0.276344 8.25553 0L8.0824 1.23523C9.79373 1.47495 11.3453 2.25071 12.5705 3.47262C13.7325 4.63459 14.4949 6.10288 14.7713 7.71766L15.9998 7.50791C15.6769 5.63676 14.7946 3.93874 13.4495 2.59031Z" fill="currentColor"></path>
  </symbol>
  <symbol xmlns="http://www.w3.org/2000/svg" viewBox="0 0 16 16" id="ic_star">
    <path d="M14.808 7.00801L11.128 9.66401L12.536 13.96C12.608 14.192 12.528 14.44 12.336 14.584C12.24 14.656 12.12 14.688 12.008 14.688C11.896 14.688 11.784 14.656 11.68 14.584L7.99999 11.92L4.31999 14.576C4.12799 14.72 3.86399 14.712 3.66399 14.576C3.47199 14.432 3.39199 14.184 3.46399 13.952L4.87199 9.65601L1.19199 7.00001C0.999994 6.85601 0.911994 6.60801 0.991994 6.37601C1.06399 6.14401 1.27999 5.99201 1.51999 5.99201H6.07199L7.47999 1.69601C7.55199 1.47201 7.76799 1.31201 8.00799 1.31201C8.24799 1.31201 8.46399 1.46401 8.53599 1.69601L9.93599 6.00001H14.488C14.728 6.00001 14.944 6.15201 15.016 6.38401C15.088 6.61601 15.008 6.86401 14.808 7.00801Z" fill="currentColor"></path>
  </symbol>
  <symbol xmlns="http://www.w3.org/2000/svg" viewBox="0 0 20 20" id="ic_telegram">
    <path fill-rule="evenodd" clip-rule="evenodd" d="M2.8181 9.11536C6.72261 7.31925 9.32623 6.13514 10.629 5.56304C14.3485 3.92957 15.1214 3.64582 15.6251 3.63645C15.7359 3.63439 15.9837 3.66338 16.1441 3.80087C16.2796 3.91695 16.3169 4.07377 16.3348 4.18383C16.3526 4.2939 16.3748 4.54462 16.3572 4.74053C16.1556 6.97663 15.2834 12.403 14.8397 14.9075C14.652 15.9672 14.2823 16.3225 13.9244 16.3573C13.1466 16.4329 12.556 15.8146 11.8027 15.2932C10.6239 14.4773 9.9579 13.9695 8.81366 13.1733C7.49129 12.2532 8.34853 11.7476 9.10214 10.9211C9.29936 10.7048 12.7263 7.41371 12.7927 7.11515C12.801 7.07781 12.8087 6.93863 12.7303 6.86513C12.652 6.79164 12.5364 6.81677 12.453 6.83676C12.3348 6.86509 10.4516 8.17929 6.80353 10.7794C6.269 11.1669 5.78484 11.3557 5.35105 11.3458C4.87283 11.3349 3.95292 11.0603 3.26907 10.8256C2.43029 10.5378 1.76365 10.3856 1.8217 9.89665C1.85194 9.642 2.18407 9.38157 2.8181 9.11536Z" fill="currentColor"></path>
  </symbol>
  <symbol xmlns="http://www.w3.org/2000/svg" viewBox="0 0 16 16" id="ic_time">
    <path d="M8 15.75C12.275 15.75 15.75 12.275 15.75 8C15.75 3.72501 12.275 0.25 8 0.25C3.72501 0.25 0.25 3.72501 0.25 8C0.25 12.275 3.72501 15.75 8 15.75ZM7.25 4.14999C7.25 3.73999 7.58499 3.4 8 3.4C8.41501 3.4 8.75 3.73999 8.75 4.14999V7.25H11.15C11.565 7.25 11.9 7.58499 11.9 8C11.9 8.41498 11.565 8.75 11.15 8.75H8C7.58499 8.75 7.25 8.41498 7.25 8V4.14999Z" fill="currentColor"></path>
  </symbol>
  <symbol xmlns="http://www.w3.org/2000/svg" viewBox="0 0 20 22" id="ic_video_play">
    <path d="M19.4696 10.2474V10.2484L1.92031 0.116494C1.50498 -0.123316 0.973812 0.018982 0.734003 0.43441C0.657856 0.566319 0.617676 0.71587 0.617676 0.868262V21.1319C0.617872 21.6115 1.00694 22.0002 1.48656 21.9999C1.63885 21.9998 1.7885 21.9597 1.92041 21.8836L19.4697 11.7517C19.8851 11.512 20.0275 10.9808 19.7878 10.5654C19.7115 10.4333 19.6018 10.3236 19.4696 10.2474Z" fill="currentColor"></path>
  </symbol>
  <symbol xmlns="http://www.w3.org/2000/svg" viewBox="0 0 16 16" id="ic_whatsapp">
    <path d="M8.002 0H7.998C3.587 0 0 3.588 0 8C0 9.75 0.564 11.372 1.523 12.689L0.526 15.661L3.601 14.678C4.866 15.516 6.375 16 8.002 16C12.413 16 16 12.411 16 8C16 3.589 12.413 0 8.002 0ZM12.657 11.297C12.464 11.842 11.698 12.294 11.087 12.426C10.669 12.515 10.123 12.586 8.285 11.824C5.934 10.85 4.42 8.461 4.302 8.306C4.189 8.151 3.352 7.041 3.352 5.893C3.352 4.745 3.935 4.186 4.17 3.946C4.363 3.749 4.682 3.659 4.988 3.659C5.087 3.659 5.176 3.664 5.256 3.668C5.491 3.678 5.609 3.692 5.764 4.063C5.957 4.528 6.427 5.676 6.483 5.794C6.54 5.912 6.597 6.072 6.517 6.227C6.442 6.387 6.376 6.458 6.258 6.594C6.14 6.73 6.028 6.834 5.91 6.98C5.802 7.107 5.68 7.243 5.816 7.478C5.952 7.708 6.422 8.475 7.114 9.091C8.007 9.886 8.731 10.14 8.99 10.248C9.183 10.328 9.413 10.309 9.554 10.159C9.733 9.966 9.954 9.646 10.179 9.331C10.339 9.105 10.541 9.077 10.753 9.157C10.969 9.232 12.112 9.797 12.347 9.914C12.582 10.032 12.737 10.088 12.794 10.187C12.85 10.286 12.85 10.751 12.657 11.297Z" fill="currentColor"></path>
  </symbol>
</svg>